<?xml version="1.0" encoding="UTF-8" standalone="no"?><!DOCTYPE svg PUBLIC "-//W3C//DTD SVG 1.1//EN" "http://www.w3.org/Graphics/SVG/1.1/DTD/svg11.dtd"><svg width="100%" height="100%" viewBox="0 0 112 134" version="1.1" xmlns="http://www.w3.org/2000/svg" xmlns:xlink="http://www.w3.org/1999/xlink" xml:space="preserve" xmlns:serif="http://www.serif.com/" style="fill-rule:evenodd;clip-rule:evenodd;stroke-linejoin:round;stroke-miterlimit:2;"><path d="M84.991,133.333c-5.216,0 -10.335,-1.563 -14.652,-4.445c-4.318,2.882 -9.445,4.445 -14.652,4.445c-5.206,0 -10.335,-1.563 -14.652,-4.445c-4.288,2.882 -9.25,4.405 -14.476,4.445l-0.156,0c-7.092,0 -13.744,-2.823 -18.755,-7.941c-4.933,-5.04 -7.648,-11.673 -7.648,-18.677l0,-51.038c0.01,-30.701 24.987,-55.678 55.687,-55.678c30.701,0 55.678,24.977 55.678,55.678l0,51.057c0,14.134 -10.94,25.797 -24.908,26.559c-0.489,0.03 -0.977,0.039 -1.465,0.039Z" style="fill:#3551f3;fill-rule:nonzero;"/><path d="M84.991,127.473c-4.659,0 -9.211,-1.602 -12.835,-4.513c-0.625,-0.508 -1.299,-0.606 -1.749,-0.606c-0.713,0 -1.436,0.254 -2.032,0.733c-3.595,2.833 -8.097,4.396 -12.689,4.396c-4.591,0 -9.094,-1.563 -12.688,-4.396c-0.577,-0.459 -1.26,-0.693 -1.964,-0.693c-0.703,0 -1.387,0.244 -1.963,0.693c-3.604,2.843 -7.941,4.357 -12.542,4.396l-0.137,0c-5.48,0 -10.647,-2.188 -14.545,-6.173c-3.849,-3.937 -5.978,-9.114 -5.978,-14.574l0,-51.038c0,-27.487 22.349,-49.836 49.817,-49.836c27.468,-0 49.817,22.349 49.817,49.817l0,51.057c0,11.018 -8.508,20.113 -19.37,20.708c-0.381,0.02 -0.762,0.029 -1.143,0.029Z" style="fill-rule:nonzero;"/><path d="M99.643,55.678l0,51.057c0,7.814 -6.027,14.427 -13.832,14.857c-3.79,0.205 -7.287,-1.026 -9.993,-3.204c-3.243,-2.608 -7.805,-2.491 -11.077,0.088c-2.491,1.963 -5.636,3.136 -9.065,3.136c-3.429,0 -6.564,-1.172 -9.055,-3.136c-3.311,-2.608 -7.873,-2.608 -11.184,0c-2.471,1.944 -5.578,3.116 -8.957,3.136c-8.117,0.058 -14.75,-6.779 -14.75,-14.896l0,-51.038c0,-24.274 19.683,-43.956 43.956,-43.956c24.274,-0 43.956,19.683 43.956,43.956Z" style="fill:#fff;fill-rule:nonzero;"/><path d="M47.014,51.819l-16.381,-9.455c-2.129,-1.231 -4.864,-0.498 -6.095,1.631c-1.231,2.13 -0.498,4.865 1.631,6.095l9.69,5.597l-9.69,5.597c-2.129,1.23 -2.862,3.956 -1.631,6.095c1.231,2.13 3.956,2.862 6.095,1.631l16.381,-9.455c2.97,-1.719 2.97,-6.007 0,-7.727l0,-0.01Z" style="fill-rule:nonzero;"/><path d="M84.103,51.214l-21.519,0c-2.461,0 -4.464,1.992 -4.464,4.464c0,2.471 1.992,4.464 4.464,4.464l21.519,0c2.462,0 4.464,-1.993 4.464,-4.464c0,-2.471 -1.992,-4.464 -4.464,-4.464Z" style="fill-rule:nonzero;"/></svg>