<?xml version="1.0" encoding="UTF-8" standalone="no"?><!DOCTYPE svg PUBLIC "-//W3C//DTD SVG 1.1//EN" "http://www.w3.org/Graphics/SVG/1.1/DTD/svg11.dtd"><svg width="100%" height="100%" viewBox="0 0 2481 2481" version="1.1" xmlns="http://www.w3.org/2000/svg" xmlns:xlink="http://www.w3.org/1999/xlink" xml:space="preserve" xmlns:serif="http://www.serif.com/" style="fill-rule:evenodd;clip-rule:evenodd;stroke-linejoin:round;stroke-miterlimit:2;"><g><path d="M2480.315,620.079l0,1240.157c0,342.231 -277.848,620.079 -620.079,620.079l-1240.157,0c-342.231,0 -620.079,-277.848 -620.079,-620.079l0,-1240.157c0,-342.231 277.848,-620.079 620.079,-620.079l1240.157,0c342.231,0 620.079,277.848 620.079,620.079Z"/><g><path d="M1924.707,1693.373l1.428,1.428c-161.325,199.734 -408.196,327.564 -684.688,327.564c-0.43,0 -0.86,-0 -1.29,-0.001c276.628,-0.398 523.499,-128.75 684.549,-328.991Z" style="fill:#ebebeb;"/><path d="M555.608,1693.373c-121.279,-150.792 -193.889,-342.351 -193.889,-550.736c0,-276.492 127.83,-523.363 327.564,-684.688l550.875,550.875l-684.549,684.549Z" style="fill:url(#_Linear1);"/><path d="M1240.157,1008.824l-684.549,684.549c161.05,200.241 407.921,328.593 684.549,328.991c276.628,-0.398 523.499,-128.75 684.549,-328.991l-684.549,-684.549Z" style="fill:url(#_Linear2);"/><path d="M1924.707,1693.373c121.279,-150.792 193.889,-342.351 193.889,-550.736c0,-276.492 -127.83,-523.363 -327.564,-684.688l-550.875,550.875l684.549,684.549Z" style="fill:url(#_Linear3);"/><path d="M555.608,1693.373l-1.428,1.428c161.325,199.734 408.196,327.564 684.688,327.564c0.43,0 0.86,-0 1.29,-0.001c-276.628,-0.398 -523.499,-128.75 -684.549,-328.991Z" style="fill:#ebebeb;"/></g></g><defs><linearGradient id="_Linear1" x1="0" y1="0" x2="1" y2="0" gradientUnits="userSpaceOnUse" gradientTransform="matrix(658.943572,573.985951,-573.985951,658.943572,361.719251,654.332993)"><stop offset="0" style="stop-color:#ebebeb;stop-opacity:1"/><stop offset="0.65" style="stop-color:#e1e1e1;stop-opacity:1"/><stop offset="1" style="stop-color:#a3a3a3;stop-opacity:1"/></linearGradient><linearGradient id="_Linear2" x1="0" y1="0" x2="1" y2="0" gradientUnits="userSpaceOnUse" gradientTransform="matrix(685.977411,685.977411,-685.977411,685.977411,1240.15748,1008.824286)"><stop offset="0" style="stop-color:#ebebeb;stop-opacity:1"/><stop offset="1" style="stop-color:#ccc;stop-opacity:1"/></linearGradient><linearGradient id="_Linear3" x1="0" y1="0" x2="1" y2="0" gradientUnits="userSpaceOnUse" gradientTransform="matrix(685.977411,685.977411,-685.977411,685.977411,1240.15748,1008.824286)"><stop offset="0" style="stop-color:#ebebeb;stop-opacity:1"/><stop offset="1" style="stop-color:#ccc;stop-opacity:1"/></linearGradient></defs></svg>